<?xml version="1.0" encoding="utf-8"?>
<!DOCTYPE svg PUBLIC "-//W3C//DTD SVG 20010904//EN" "http://www.w3.org/TR/2001/REC-SVG-20010904/DTD/svg10.dtd">
<svg version="1.0" width="405pt" height="37.5pt" viewBox="0 0 405 37.5" preserveAspectRatio="xMidYMid meet" xmlns="http://www.w3.org/2000/svg">
  <g transform="translate(0,37.5)scale(.075,.075)">
    <path id="path1" d="M 0 -250 l 0 250 1825 0 c 1565 0 1825 -2 1825 -14 0 -18 50 -60 104 -88 33 -18 37 -23 21 -26 -11 -2 -24 -11 -30 -19 -10 -13 -13 -13 -24 1 -17 20 -67 21 -75 1 -3 -9 7 -40 21 -70 21 -43 32 -55 50 -55 13 0 23 2 23 3 0 2 -13 28 -30 58 -16 30 -30 58 -30 64 0 5 26 -16 58 -47 69 -67 88 -78 141 -78 l 41 0 -31 58 -32 57 59 -56 c 58 -56 60 -57 114 -55 49 1 55 3 58 24 2 12 -6 36 -18 53 -12 16 -20 32 -18 35 7 6 98 -93 98 -106 0 -5 12 -10 26 -10 14 0 24 3 22 8 -2 4 -16 31 -31 60 -16 30 -26 56 -24 58 2 2 26 -19 52 -47 37 -40 45 -53 34 -60 -11 -7 -10 -9 4 -9 9 0 23 -11 29 -25 7 -16 19 -25 35 -25 21 0 22 2 12 21 -9 17 -8 23 2 30 11 7 10 9 -3 9 -10 0 -29 18 -44 41 -42 67 -39 76 10 29 25 -24 49 -52 52 -62 3 -11 15 -18 30 -18 l 25 0 -30 54 c -51 89 -32 89 25 0 27 -43 40 -54 61 -54 24 0 25 2 11 18 -25 29 -58 92 -49 92 5 0 21 -13 34 -30 14 -17 31 -30 37 -30 20 0 -27 55 -64 75 -19 10 -39 29 -44 41 -6 12 -25 38 -42 58 l -32 36 556 0 556 0 0 -250 0 -250 -2700 0 -2700 0 0 250 z m 2580 -200 c 24 24 26 79 6 118 -8 15 -33 51 -55 81 -46 62 -54 101 -19 101 20 0 49 -27 177 -163 54 -59 98 -94 106 -85 3 2 -14 25 -38 49 -23 25 -63 86 -90 136 -71 137 -143 193 -246 193 -43 0 -53 -4 -68 -26 -12 -19 -14 -30 -6 -43 13 -20 42 -26 56 -12 9 9 6 13 -11 17 -42 12 -18 54 30 54 52 0 109 -42 154 -115 l 19 -30 -27 17 c -41 27 -96 24 -109 -5 -13 -29 2 -66 66 -155 51 -71 58 -114 24 -133 -78 -42 -239 80 -239 181 0 44 15 60 53 60 44 0 127 -85 127 -129 0 -39 -20 -48 -58 -26 -49 30 -81 106 -50 118 7 3 3 6 -9 6 -30 1 -42 -42 -22 -78 35 -62 136 -94 159 -51 15 28 -16 96 -64 138 -31 27 -45 32 -86 32 -64 0 -85 -27 -77 -96 5 -47 31 -84 91 -127 68 -49 171 -62 206 -27 z m -890 10 c 0 12 -16 31 -39 48 -32 22 -41 36 -50 79 -24 105 -104 173 -213 181 -65 5 -81 19 -59 54 11 17 10 19 -6 16 -13 -2 -18 -13 -19 -39 0 -21 -10 -48 -22 -64 -69 -87 48 -255 177 -255 44 0 62 10 76 44 l 13 30 23 -28 c 52 -63 78 -86 98 -86 14 0 21 6 21 20 z m 1914 10 c 38 19 39 19 77 0 46 -24 97 -26 127 -4 18 12 22 24 20 52 -2 19 -8 37 -14 39 -7 2 -9 -8 -6 -26 3 -21 -2 -35 -18 -51 -26 -26 -65 -22 -111 11 -24 16 -27 24 -19 39 14 27 12 97 -4 128 -20 38 -65 78 -107 96 -51 21 -309 22 -309 0 0 -26 47 -36 106 -21 75 19 100 6 170 -90 31 -43 68 -90 82 -105 30 -32 21 -50 -35 -69 -46 -15 -109 -4 -156 27 -44 29 -97 107 -97 143 0 29 26 61 50 61 29 0 106 -56 119 -88 15 -35 12 -64 -7 -68 -7 -1 -8 0 -2 3 16 7 1 23 -21 23 -14 0 -19 -6 -17 -18 5 -26 64 -29 77 -3 29 54 -69 161 -148 161 -44 0 -62 -10 -76 -43 -31 -74 43 -174 155 -208 48 -14 125 -10 164 11 z m -1762 82 c -48 78 -112 194 -112 203 1 5 22 -13 48 -41 26 -28 62 -59 80 -68 43 -22 77 -18 76 10 0 21 0 21 34 -3 43 -29 82 -31 82 -4 0 25 -25 45 -49 38 -13 -3 -22 3 -30 20 -31 69 1 70 70 2 40 -40 49 -53 38 -60 -11 -7 -10 -9 4 -9 9 0 23 -11 29 -25 7 -16 19 -25 35 -25 21 0 22 2 12 21 -9 17 -8 23 2 30 11 7 10 9 -3 9 -10 0 -29 18 -43 41 -42 66 -41 77 3 35 50 -48 66 -42 22 8 -35 39 -83 49 -94 20 -6 -16 -8 -16 -24 0 -27 23 -79 21 -93 -5 l -11 -21 -22 21 c -26 25 -72 27 -96 6 -15 -14 -18 -14 -30 0 -7 8 -25 15 -41 15 -23 0 -29 -4 -29 -22 l 0 -21 -23 21 c -25 24 -76 29 -95 10 -30 -30 -2 -86 57 -113 48 -21 76 -17 75 13 0 12 2 22 5 22 3 0 26 -36 50 -80 36 -66 49 -80 69 -80 l 24 0 -20 32 z m 1918 43 c 0 9 -9 15 -25 15 -24 0 -32 -10 -18 -23 12 -13 43 -7 43 8 z m 460 0 c 0 9 -9 15 -25 15 -24 0 -32 -10 -18 -23 12 -13 43 -7 43 8 z m -1390 61 c 0 14 -5 35 -11 47 -9 18 -6 17 20 -7 17 -16 33 -38 37 -48 3 -11 15 -18 30 -18 13 0 24 2 24 5 0 2 -14 27 -30 56 -47 78 -29 84 20 7 32 -52 48 -68 65 -68 23 0 23 1 -11 57 -19 31 -34 62 -34 67 1 6 29 -19 63 -56 60 -64 64 -66 109 -66 54 0 60 10 23 34 -14 9 -25 23 -25 30 0 18 9 18 32 -3 22 -20 36 -10 17 13 -9 10 -24 14 -47 12 -28 -4 -36 0 -45 19 -6 15 -19 23 -35 23 l -24 0 27 -48 27 -47 -46 51 -46 52 -64 0 c -56 0 -66 -2 -71 -19 -8 -25 -27 -24 -50 1 -37 41 -104 16 -91 -34 9 -36 71 -86 106 -86 26 0 30 4 30 26 z M 1639 -418 c -12 23 -12 23 10 4 23 -21 26 -26 11 -26 -5 0 -15 10 -21 22 z M 1403 -385 c -56 34 -103 106 -103 159 0 59 13 75 35 43 9 -14 14 -31 10 -37 -3 -5 -3 -20 0 -31 6 -17 13 -20 38 -16 23 3 44 -4 79 -27 40 -26 48 -36 48 -63 0 -22 -6 -36 -19 -43 -29 -15 -41 -13 -88 15 z M 1532 -318 c -7 7 -12 16 -12 21 0 14 -39 60 -68 79 -15 10 -39 18 -54 18 -16 0 -33 9 -42 22 -24 34 -19 41 25 35 64 -8 131 -69 164 -149 15 -38 10 -49 -13 -26 z M 1442 -259 c -58 45 -64 64 -9 30 28 -17 77 -72 65 -71 -2 0 -27 19 -56 41 z M 3595 -308 c -45 85 -71 114 -127 143 l -53 27 53 -5 c 61 -5 94 -25 136 -84 28 -41 49 -133 29 -133 -5 0 -22 24 -38 52 z M 3282 -143 c 16 2 40 2 56 0 15 -2 2 -4 -28 -4 -30 0 -43 2 -28 4 z M 1659 -240 c -13 10 -19 19 -12 20 11 0 43 -26 43 -36 0 -8 -8 -4 -31 16 z M 1879 -240 c -13 10 -19 19 -12 20 11 0 43 -26 43 -36 0 -8 -8 -4 -31 16 z M 2010 -250 c -8 5 -12 12 -9 15 4 3 12 -1 19 -10 14 -17 11 -19 -10 -5 z M 1652 -200 c -30 13 -42 25 -42 40 0 11 6 20 13 20 15 0 83 -67 76 -74 -2 -3 -23 4 -47 14 z M 1872 -200 c -30 13 -42 25 -42 40 0 11 6 20 13 20 15 0 83 -67 76 -74 -2 -3 -23 4 -47 14 z M 2766 -229 c -27 31 -43 75 -32 86 10 10 47 -30 42 -44 -3 -7 3 -22 14 -33 11 -11 20 -24 20 -30 0 -19 -18 -10 -44 21 z M 3810 -218 c -29 40 -41 86 -19 72 13 -8 69 -94 69 -106 0 -20 -22 -5 -50 34 z M 4012 -210 c -22 28 -42 56 -44 61 -2 6 -14 9 -26 7 -23 -3 -23 -3 9 -53 l 31 -50 -66 63 c -37 34 -70 62 -75 62 -4 0 -13 11 -19 24 -6 13 -25 40 -42 60 l -32 36 221 0 c 184 0 221 -2 221 -14 0 -19 46 -57 98 -80 45 -20 55 -36 23 -36 -11 0 -21 -6 -24 -12 -4 -10 -7 -10 -18 0 -17 16 -66 16 -72 0 -4 -10 -7 -10 -18 0 -19 18 -66 15 -73 -5 -5 -12 -9 -14 -18 -5 -16 16 -68 15 -69 0 -3 -25 3 -43 23 -71 36 -50 12 -40 -30 13 z M 3719 -58 c -48 37 -60 58 -32 58 21 0 53 -30 72 -68 15 -29 10 -28 -40 10 z M 4275 -68 c -27 14 -65 49 -65 60 0 21 42 4 66 -27 30 -39 29 -49 -1 -33 z " />
  </g>
</svg>