<?xml version="1.0" encoding="utf-8"?>
<!DOCTYPE svg PUBLIC "-//W3C//DTD SVG 20010904//EN" "http://www.w3.org/TR/2001/REC-SVG-20010904/DTD/svg10.dtd">
<svg version="1.0" width="435pt" height="75pt" viewBox="0 0 435 75" preserveAspectRatio="xMidYMid meet" xmlns="http://www.w3.org/2000/svg">
  <g transform="translate(0,75)scale(.075,.075)">
    <path id="path1" d="M 700 -821 c -32 6 -33 7 -12 13 l 24 7 -7 120 c -8 121 -8 121 15 121 17 0 20 -3 12 -12 -5 -7 -8 -36 -5 -65 l 5 -52 47 -4 46 -3 -47 -2 -48 -2 0 -55 0 -55 45 0 c 38 0 47 4 55 22 8 21 9 20 9 -10 l 1 -32 -52 1 c -29 1 -69 5 -88 8 z M 981 -816 c -16 19 -121 249 -116 254 10 10 25 -12 40 -59 l 17 -50 45 3 c 44 3 45 4 61 53 15 44 21 50 47 53 30 3 30 3 8 -13 -25 -17 -44 -72 -63 -183 -14 -74 -19 -82 -39 -58 z m 24 114 c 5 20 2 22 -35 22 -22 0 -40 -2 -40 -5 0 -2 12 -30 26 -62 l 27 -58 8 40 c 5 22 11 50 14 63 z M 1145 -806 c -27 27 -32 63 -13 88 7 9 32 28 56 42 34 21 42 32 42 55 0 37 -20 53 -62 49 -23 -2 -36 -10 -46 -28 l -13 -25 3 30 c 3 28 6 30 45 33 52 4 78 -9 91 -45 14 -41 -1 -69 -53 -101 -25 -15 -48 -35 -51 -44 -9 -29 5 -57 32 -64 32 -8 52 1 64 28 9 21 9 21 7 -7 -2 -27 -6 -30 -39 -33 -29 -3 -43 2 -63 22 z M 1270 -820 c -12 8 -11 10 6 10 32 0 67 86 72 178 5 88 27 100 30 16 2 -55 30 -124 74 -186 14 -21 16 -28 6 -28 -8 0 -29 32 -48 70 -19 39 -37 67 -40 63 -4 -5 -15 -31 -25 -58 -27 -75 -41 -87 -75 -65 z M 835 -597 c -8 18 -17 21 -48 19 -21 -2 -37 2 -37 8 0 5 20 10 45 10 39 0 45 -3 51 -25 8 -33 1 -40 -11 -12 z M 1150 -400 c 0 73 3 90 15 90 11 0 15 -11 15 -40 0 -39 1 -40 35 -40 24 0 35 -5 35 -15 0 -10 -11 -15 -35 -15 -31 0 -35 -3 -35 -25 0 -22 4 -25 35 -25 19 0 35 -4 35 -10 0 -6 -22 -10 -50 -10 l -50 0 0 90 z M 1607 -462 c -6 15 -16 31 -22 35 -7 6 -6 10 3 14 7 3 12 24 12 54 0 37 4 49 15 49 11 0 15 -12 15 -49 0 -30 5 -52 12 -55 10 -5 10 -7 0 -12 -17 -8 -15 -44 3 -44 8 0 15 -4 15 -10 0 -23 -41 -9 -53 18 z M 2130 -400 c 0 72 3 90 14 90 11 0 16 -14 18 -48 3 -39 6 -47 23 -47 17 0 20 8 23 47 2 35 7 48 18 48 13 0 15 -9 9 -52 -9 -68 -12 -71 -46 -66 -27 4 -29 2 -29 -29 0 -23 -5 -33 -15 -33 -12 0 -15 17 -15 90 z M 1780 -465 c 0 9 5 15 11 13 6 -2 11 -8 11 -13 0 -5 -5 -11 -11 -13 -6 -2 -11 4 -11 13 z M 1980 -435 c -15 18 -15 78 1 107 12 21 59 24 59 4 0 -8 -8 -13 -18 -12 -13 1 -18 -8 -20 -36 -3 -33 0 -38 17 -38 12 0 21 -4 21 -10 0 -6 -9 -10 -19 -10 -11 0 -21 -5 -23 -11 -2 -7 -9 -4 -18 6 z M 2622 -437 c -9 10 -27 13 -62 11 l -50 -4 0 60 c 0 46 3 60 14 60 11 0 16 -14 18 -47 3 -47 3 -47 40 -49 l 37 -3 3 47 c 3 45 4 47 36 50 22 2 32 -1 32 -11 0 -8 -10 -13 -22 -13 -19 1 -23 -5 -26 -36 -3 -33 0 -38 17 -38 12 0 21 -4 21 -10 0 -6 -9 -10 -19 -10 -11 0 -21 -5 -23 -11 -2 -7 -8 -6 -16 4 z M 1285 -410 c -39 43 -12 100 46 100 35 0 59 -24 59 -59 0 -55 -68 -82 -105 -41 z m 69 16 c 19 18 19 20 6 45 -18 33 -70 18 -70 -21 0 -19 19 -40 36 -40 7 0 20 7 28 16 z M 1420 -369 c 0 45 3 59 14 59 11 0 16 -14 18 -48 3 -39 6 -47 23 -47 41 0 29 -20 -13 -22 l -42 -2 0 60 z M 1667 -423 c -4 3 -7 12 -7 20 0 11 4 11 20 1 17 -11 22 -10 30 2 7 12 3 18 -21 28 -23 9 -30 18 -27 35 3 19 10 22 50 24 27 1 48 -2 48 -7 0 -6 -4 -10 -10 -10 -6 0 -10 -20 -10 -44 0 -31 -5 -46 -16 -50 -21 -8 -49 -8 -57 1 z m 53 78 c 0 8 -9 15 -20 15 -20 0 -26 -11 -13 -23 12 -13 33 -7 33 8 z M 1780 -370 c 0 33 4 60 10 60 6 0 10 -27 10 -60 0 -33 -4 -60 -10 -60 -6 0 -10 27 -10 60 z M 1840 -368 c 0 69 18 78 22 10 3 -40 6 -47 26 -50 20 -3 22 0 22 47 0 39 4 51 15 51 11 0 15 -12 15 -49 0 -57 -13 -71 -63 -69 l -37 1 0 59 z M 2277 -412 c -21 23 -22 51 -1 80 21 30 87 28 93 -3 3 -17 1 -18 -13 -6 -20 16 -66 6 -66 -14 0 -11 11 -15 40 -15 44 0 52 -16 24 -44 -21 -21 -57 -20 -77 2 z m 61 20 c 2 7 -6 12 -22 12 -25 0 -33 -10 -19 -24 10 -10 36 -3 41 12 z M 2397 -423 c -4 3 -7 13 -7 22 0 12 3 12 12 3 17 -17 38 -15 38 3 0 8 -4 15 -10 15 -18 0 -50 39 -44 54 6 17 104 21 104 5 0 -5 -4 -9 -10 -9 -6 0 -10 -20 -10 -44 0 -31 -5 -46 -16 -50 -21 -8 -49 -8 -57 1 z m 43 78 c 0 8 -7 15 -15 15 -16 0 -20 -12 -8 -23 11 -12 23 -8 23 8 z M 2707 -423 c -15 14 -6 43 18 59 14 9 25 21 25 26 0 6 -11 7 -25 4 -19 -5 -25 -2 -25 9 0 23 59 16 74 -8 9 -15 6 -22 -16 -41 -33 -26 -36 -40 -8 -33 13 3 20 0 20 -9 0 -14 -50 -20 -63 -7 z M 2807 -333 c -12 11 -8 23 8 23 8 0 15 -7 15 -15 0 -16 -12 -20 -23 -8 z " />
  </g>
</svg>