<?xml version="1.0" encoding="utf-8"?>
<!DOCTYPE svg PUBLIC "-//W3C//DTD SVG 20010904//EN" "http://www.w3.org/TR/2001/REC-SVG-20010904/DTD/svg10.dtd">
<svg version="1.0" width="435pt" height="75pt" viewBox="0 0 435 75" preserveAspectRatio="xMidYMid meet" xmlns="http://www.w3.org/2000/svg">
  <g transform="translate(0,75)scale(.075,.075)">
    <path id="path1" d="M 1387 -863 c -4 3 -7 37 -7 74 0 44 -4 69 -12 72 -10 4 -10 6 -1 6 9 1 10 8 5 23 -5 13 -6 47 -4 76 3 44 7 52 24 52 17 0 18 -2 8 -15 -10 -12 -11 -43 -7 -123 4 -59 9 -122 13 -140 6 -30 -3 -42 -19 -25 z M 695 -821 c -3 5 0 13 6 17 8 5 10 40 5 125 -5 73 -4 119 2 119 6 0 13 -17 17 -38 8 -44 8 -209 0 -223 -8 -12 -22 -12 -30 0 z M 866 -814 c -3 9 -6 35 -6 59 0 40 -2 44 -28 48 l -27 4 27 2 c 26 1 27 3 30 69 3 66 3 67 33 70 l 30 3 -24 -17 c -24 -17 -24 -19 -18 -136 5 -107 -1 -144 -17 -102 z M 1018 -714 c 30 20 29 61 0 67 l -23 4 23 2 c 20 1 21 4 11 22 -7 13 -7 19 -1 15 6 -3 12 4 14 16 2 16 11 24 28 26 22 2 23 1 8 -8 -14 -9 -18 -25 -18 -73 0 -66 -11 -87 -44 -87 -20 0 -20 1 2 16 z M 1120 -720 l -25 6 24 6 c 23 7 23 9 17 77 -7 71 5 99 18 43 4 -15 9 -36 12 -47 4 -17 3 -18 -6 -5 -9 12 -10 4 -5 -32 7 -51 2 -58 -35 -48 z M 1191 -704 c -12 15 -21 32 -21 38 0 6 7 0 16 -12 8 -12 24 -22 35 -22 10 0 19 -7 19 -15 0 -24 -27 -18 -49 11 z M 1301 -716 c -42 23 -64 91 -45 140 8 21 47 20 66 -2 27 -32 32 -47 6 -24 -32 29 -46 28 -54 -4 -11 -44 8 -87 46 -106 19 -10 28 -18 20 -18 -8 1 -26 7 -39 14 z M 962 -708 c -16 16 -15 38 0 38 7 0 13 -11 13 -25 0 -14 0 -25 -1 -25 0 0 -5 5 -12 12 z M 955 -624 c -9 9 -15 26 -13 38 4 27 49 34 69 10 13 -16 12 -16 -7 -6 -16 8 -24 8 -32 0 -16 -16 -15 -24 4 -42 8 -9 11 -16 5 -16 -5 0 -17 7 -26 16 z M 1080 -375 c 0 78 3 95 15 95 11 0 15 -11 15 -40 0 -39 1 -40 35 -40 24 0 35 -5 35 -15 0 -10 -11 -15 -35 -15 -31 0 -35 -3 -35 -25 0 -22 4 -25 35 -25 24 0 35 -5 35 -15 0 -11 -12 -15 -50 -15 l -50 0 0 95 z M 1610 -375 c 0 78 3 95 15 95 11 0 15 -12 15 -44 0 -31 5 -46 16 -50 26 -10 34 2 34 50 0 32 4 44 15 44 11 0 15 -12 15 -49 0 -56 -17 -76 -55 -67 -24 6 -25 4 -25 -34 0 -29 -4 -40 -15 -40 -12 0 -15 17 -15 95 z M 2390 -375 c 0 76 3 95 14 95 11 0 16 -14 18 -48 3 -39 6 -47 23 -47 17 0 20 8 23 47 2 34 7 48 18 48 10 0 14 -12 14 -43 0 -56 -18 -82 -53 -75 -25 5 -27 3 -27 -33 0 -28 -4 -39 -15 -39 -12 0 -15 17 -15 95 z M 3100 -375 c 0 78 3 95 15 95 10 0 15 -10 15 -32 l 0 -32 33 32 c 41 40 72 44 34 4 -33 -34 -33 -39 -5 -69 31 -33 1 -30 -34 4 l -28 27 0 -62 c 0 -48 -3 -62 -15 -62 -12 0 -15 17 -15 95 z M 3420 -375 c 0 76 3 95 14 95 11 0 16 -14 18 -48 3 -39 6 -47 23 -47 17 0 20 8 23 47 2 34 7 48 18 48 10 0 14 -12 14 -43 0 -56 -18 -82 -53 -75 -25 5 -27 3 -27 -33 0 -28 -4 -39 -15 -39 -12 0 -15 17 -15 95 z M 3670 -375 c 0 78 3 95 15 95 12 0 15 -17 15 -95 0 -78 -3 -95 -15 -95 -12 0 -15 17 -15 95 z M 3730 -375 c 0 78 3 95 15 95 12 0 15 -17 15 -95 0 -78 -3 -95 -15 -95 -12 0 -15 17 -15 95 z M 1525 -400 c -10 11 -13 20 -7 20 7 0 12 14 12 31 0 17 5 39 10 50 12 22 60 26 60 5 0 -9 -7 -12 -20 -9 -18 5 -20 0 -20 -36 0 -34 3 -41 20 -41 11 0 20 -4 20 -10 0 -6 -9 -10 -20 -10 -11 0 -20 -4 -20 -10 0 -16 -15 -12 -35 10 z M 1211 -374 c -12 15 -21 30 -21 34 0 4 9 19 21 34 37 48 109 25 109 -36 0 -57 -73 -78 -109 -32 z m 79 9 c 15 18 10 45 -12 59 -35 22 -74 -27 -48 -59 16 -19 44 -19 60 0 z M 1350 -339 c 0 45 3 59 14 59 11 0 16 -14 18 -48 3 -41 6 -47 25 -47 40 -1 25 -20 -17 -22 l -40 -1 0 59 z M 1761 -374 c -12 15 -21 30 -21 34 0 4 9 19 21 34 37 48 109 25 109 -36 0 -57 -73 -78 -109 -32 z m 79 9 c 26 32 -13 81 -48 59 -22 -14 -27 -41 -12 -59 16 -19 44 -19 60 0 z M 1901 -387 c -16 20 -5 42 26 56 20 9 23 15 14 24 -9 9 -16 9 -32 -1 -18 -12 -20 -11 -17 5 2 13 12 18 38 18 28 0 36 -4 38 -22 2 -14 -5 -27 -22 -39 -33 -21 -33 -38 -1 -31 16 3 24 0 22 -7 -5 -17 -52 -19 -66 -3 z M 2022 -393 c -41 16 -31 98 13 109 30 8 78 -3 70 -16 -3 -5 -12 -7 -20 -3 -20 7 -65 -5 -65 -17 0 -6 21 -10 46 -10 42 0 45 -1 38 -22 -13 -45 -40 -58 -82 -41 z m 56 31 c 2 8 -7 12 -27 12 -30 0 -39 -9 -24 -24 11 -10 46 -3 51 12 z M 2196 -378 c 3 13 16 41 27 63 l 19 39 21 -39 20 -39 19 38 c 11 21 21 36 23 34 3 -2 16 -30 30 -61 18 -41 21 -57 12 -57 -7 0 -20 15 -29 32 l -15 33 -17 -33 c -21 -40 -28 -40 -48 0 l -15 33 -17 -33 c -19 -37 -41 -44 -30 -10 z M 2542 -384 c -46 32 -15 104 45 104 28 0 63 -33 63 -60 0 -27 -35 -60 -63 -60 -12 0 -33 7 -45 16 z m 62 10 c 10 4 16 18 16 35 0 22 -6 30 -24 35 -33 8 -46 -2 -46 -35 0 -40 15 -50 54 -35 z M 2749 -384 c -12 15 -10 20 21 45 37 31 35 49 -5 31 -20 -9 -25 -9 -25 2 0 30 64 35 80 6 8 -15 6 -23 -12 -40 -12 -11 -25 -20 -30 -20 -4 0 -8 -5 -8 -11 0 -7 10 -9 25 -6 16 3 24 0 22 -7 -6 -18 -52 -18 -68 0 z M 2872 -393 c -41 16 -31 98 13 109 30 8 78 -3 70 -16 -3 -5 -12 -7 -20 -3 -20 7 -65 -5 -65 -17 0 -6 21 -10 46 -10 42 0 45 -1 38 -22 -13 -45 -40 -58 -82 -41 z m 56 31 c 2 8 -7 12 -27 12 -30 0 -39 -9 -24 -24 11 -10 46 -3 51 12 z M 2986 -378 c -22 30 -20 54 5 79 14 14 30 19 51 17 44 -4 45 -23 1 -23 -20 0 -38 -6 -40 -13 -3 -8 8 -12 36 -12 34 0 41 -3 41 -19 0 -48 -67 -68 -94 -29 z m 72 16 c 2 8 -7 12 -27 12 -30 0 -39 -9 -24 -24 11 -10 46 -3 51 12 z M 3321 -381 c -26 26 -27 55 -1 81 24 24 80 27 80 4 0 -8 -5 -12 -11 -9 -5 4 -21 4 -35 1 -19 -5 -24 -13 -24 -36 0 -23 5 -31 24 -36 14 -3 30 -3 37 1 7 5 10 3 7 -6 -7 -23 -54 -23 -77 0 z M 3562 -393 c -24 10 -11 22 18 17 40 -8 41 19 2 38 -16 8 -27 21 -27 33 0 17 7 20 46 21 l 47 2 -5 -42 c -9 -70 -31 -89 -81 -69 z m 48 78 c 0 8 -7 15 -15 15 -16 0 -20 -12 -8 -23 11 -12 23 -8 23 8 z M 3796 -378 c -22 30 -20 54 5 79 14 14 30 19 51 17 44 -4 45 -23 1 -23 -20 0 -38 -6 -40 -13 -3 -8 8 -12 36 -12 34 0 41 -3 41 -19 0 -48 -67 -68 -94 -29 z m 72 16 c 2 8 -7 12 -27 12 -30 0 -39 -9 -24 -24 11 -10 46 -3 51 12 z M 3910 -340 c 0 46 3 60 14 60 11 0 16 -14 18 -48 3 -40 6 -47 26 -50 20 -3 22 0 22 47 0 39 4 51 16 51 12 0 14 -10 12 -51 -3 -60 -24 -82 -58 -61 -12 7 -20 8 -20 2 0 -5 -7 -10 -15 -10 -12 0 -15 13 -15 60 z M 4056 -384 c -20 19 -20 29 -1 47 8 8 11 18 7 22 -4 4 -7 10 -7 13 -1 4 -6 17 -13 29 -15 28 7 53 47 53 65 0 80 -51 21 -71 -34 -12 -40 -29 -10 -29 21 0 45 -34 35 -50 -3 -6 -1 -10 4 -10 6 0 11 -4 11 -10 0 -16 -77 -12 -94 6 z m 54 24 c 0 13 -7 20 -20 20 -19 0 -27 -20 -13 -33 13 -14 33 -6 33 13 z m 10 106 c 0 11 -8 14 -27 12 -39 -4 -42 -28 -4 -28 21 0 31 5 31 16 z M 4177 -382 c -47 52 9 122 77 96 29 -11 17 -23 -17 -17 -23 3 -37 0 -46 -11 -12 -14 -8 -16 33 -16 50 0 57 -10 30 -48 -18 -27 -55 -29 -77 -4 z m 61 20 c 2 8 -7 12 -28 12 -28 0 -31 -2 -20 -15 15 -18 41 -16 48 3 z M 4297 -394 c -15 15 -6 44 18 60 35 23 32 37 -7 28 -29 -6 -31 -5 -19 10 24 29 81 14 81 -21 0 -7 -14 -22 -32 -33 -26 -15 -29 -20 -15 -25 9 -4 21 -3 28 1 7 4 10 2 7 -7 -5 -15 -49 -24 -61 -13 z M 4397 -304 c -8 8 1 24 14 24 5 0 9 -7 9 -15 0 -15 -12 -20 -23 -9 z " />
  </g>
</svg>