<?xml version="1.0" encoding="utf-8"?>
<!DOCTYPE svg PUBLIC "-//W3C//DTD SVG 20010904//EN" "http://www.w3.org/TR/2001/REC-SVG-20010904/DTD/svg10.dtd">
<svg version="1.0" width="435pt" height="75pt" viewBox="0 0 435 75" preserveAspectRatio="xMidYMid meet" xmlns="http://www.w3.org/2000/svg">
  <g transform="translate(0,75)scale(.075,.075)">
    <path id="path1" d="M 1170 -345 c 0 78 3 95 15 95 11 0 15 -11 15 -40 0 -39 1 -40 35 -40 24 0 35 -5 35 -15 0 -10 -11 -15 -35 -15 -31 0 -35 -3 -35 -25 0 -22 4 -25 35 -25 24 0 35 -5 35 -15 0 -11 -12 -15 -50 -15 l -50 0 0 95 z M 1700 -345 c 0 78 3 95 15 95 11 0 15 -12 15 -44 0 -31 5 -46 16 -50 26 -10 34 2 34 50 0 32 4 44 15 44 11 0 15 -12 15 -49 0 -56 -17 -76 -55 -67 -24 6 -25 4 -25 -34 0 -29 -4 -40 -15 -40 -12 0 -15 17 -15 95 z M 2480 -345 c 0 76 3 95 14 95 11 0 16 -14 18 -48 3 -39 6 -47 23 -47 17 0 20 8 23 47 2 34 7 48 18 48 10 0 14 -12 14 -43 0 -56 -18 -82 -53 -75 -25 5 -27 3 -27 -33 0 -28 -4 -39 -15 -39 -12 0 -15 17 -15 95 z M 2920 -405 c 0 30 -3 35 -23 35 -37 0 -60 23 -60 60 0 41 24 60 75 60 l 38 0 0 -95 c 0 -78 -3 -95 -15 -95 -10 0 -15 11 -15 35 z m 0 96 c 0 38 -1 40 -28 37 -47 -5 -39 -78 9 -78 16 0 19 8 19 41 z M 3270 -345 c 0 78 3 95 15 95 10 0 15 -10 15 -32 l 1 -33 27 33 c 15 18 36 32 46 32 17 0 15 -5 -12 -33 -32 -33 -32 -33 -12 -52 11 -10 20 -22 20 -27 0 -17 -25 -7 -47 20 l -22 27 -1 -63 c 0 -48 -3 -62 -15 -62 -12 0 -15 17 -15 95 z M 4380 -345 c 0 78 3 95 15 95 11 0 15 -12 15 -44 0 -31 5 -46 16 -50 26 -10 34 2 34 50 0 32 4 44 15 44 11 0 15 -12 15 -49 0 -56 -17 -76 -55 -67 -24 6 -25 4 -25 -34 0 -29 -4 -40 -15 -40 -12 0 -15 17 -15 95 z M 3080 -405 c 0 9 5 15 11 13 6 -2 11 -8 11 -13 0 -5 -5 -11 -11 -13 -6 -2 -11 4 -11 13 z M 1615 -370 c -10 11 -13 20 -7 20 7 0 12 14 12 31 0 17 5 39 10 50 12 22 60 26 60 5 0 -9 -7 -12 -20 -9 -18 5 -20 0 -20 -36 0 -34 3 -41 20 -41 11 0 20 -4 20 -10 0 -6 -9 -10 -20 -10 -11 0 -20 -4 -20 -10 0 -16 -15 -12 -35 10 z M 3476 -371 c -11 12 -14 21 -8 21 7 0 12 18 12 45 0 39 3 45 24 51 25 6 46 -1 46 -15 0 -4 -10 -7 -22 -7 -19 1 -23 -5 -26 -36 -3 -33 0 -38 17 -38 12 0 21 -4 21 -10 0 -6 -9 -10 -19 -10 -11 0 -21 -5 -23 -11 -2 -6 -12 -1 -22 10 z M 1301 -344 c -12 15 -21 30 -21 34 0 4 9 19 21 34 37 48 109 25 109 -36 0 -57 -73 -78 -109 -32 z m 79 9 c 15 18 10 45 -12 59 -35 22 -74 -27 -48 -59 16 -19 44 -19 60 0 z M 1440 -309 c 0 45 3 59 14 59 11 0 16 -14 18 -48 3 -41 6 -47 25 -47 40 -1 25 -20 -17 -22 l -40 -1 0 59 z M 1851 -344 c -12 15 -21 30 -21 34 0 4 9 19 21 34 37 48 109 25 109 -36 0 -57 -73 -78 -109 -32 z m 79 9 c 15 18 10 45 -12 59 -35 22 -74 -27 -48 -59 16 -19 44 -19 60 0 z M 1991 -357 c -16 20 -5 42 26 56 20 9 23 15 14 24 -9 9 -16 9 -32 -1 -18 -12 -20 -11 -17 5 2 13 12 18 38 18 28 0 36 -4 38 -22 2 -14 -5 -27 -22 -39 -33 -21 -33 -38 -1 -31 16 3 24 0 22 -7 -5 -17 -52 -19 -66 -3 z M 2112 -363 c -41 16 -31 98 13 109 30 8 78 -3 70 -16 -3 -5 -12 -7 -20 -3 -20 7 -65 -5 -65 -17 0 -6 21 -10 46 -10 42 0 45 -1 38 -22 -13 -45 -40 -58 -82 -41 z m 56 31 c 2 8 -7 12 -27 12 -30 0 -39 -9 -24 -24 11 -10 46 -3 51 12 z M 2286 -348 c 3 13 16 41 27 63 l 19 39 21 -39 20 -39 19 38 c 11 21 21 36 23 34 3 -2 16 -30 30 -61 18 -41 21 -57 12 -57 -7 0 -20 15 -29 32 l -15 33 -17 -33 c -9 -17 -20 -32 -24 -32 -5 0 -15 15 -24 32 l -15 33 -17 -33 c -19 -37 -41 -44 -30 -10 z M 2632 -354 c -46 32 -15 104 45 104 28 0 63 -33 63 -60 0 -27 -35 -60 -63 -60 -12 0 -33 7 -45 16 z m 62 10 c 10 4 16 18 16 35 0 22 -6 30 -24 35 -33 8 -46 -2 -46 -35 0 -40 15 -50 54 -35 z M 2970 -310 c 0 47 3 60 15 60 11 0 15 -11 15 -39 0 -42 18 -65 44 -55 11 4 16 1 16 -10 0 -19 -31 -21 -48 -4 -9 9 -12 9 -12 0 0 -7 -7 -12 -15 -12 -12 0 -15 13 -15 60 z M 3080 -310 c 0 47 3 60 15 60 12 0 15 -13 15 -60 0 -47 -3 -60 -15 -60 -12 0 -15 13 -15 60 z M 3140 -310 c 0 68 17 82 22 19 2 -27 9 -46 21 -53 23 -15 37 6 37 56 0 21 5 38 11 38 6 0 9 -20 7 -51 -3 -60 -24 -82 -58 -61 -12 7 -20 8 -20 2 0 -5 -4 -10 -10 -10 -6 0 -10 27 -10 60 z M 3571 -344 c -12 15 -21 30 -21 34 0 4 9 19 21 34 37 48 109 25 109 -36 0 -57 -73 -78 -109 -32 z m 79 9 c 26 32 -13 81 -48 59 -22 -14 -27 -41 -12 -59 16 -19 44 -19 60 0 z M 3720 -350 c -11 11 -20 29 -20 40 0 27 35 60 63 60 36 0 67 -27 67 -60 0 -54 -71 -79 -110 -40 z m 80 20 c 8 14 8 26 0 40 -18 33 -70 23 -70 -14 0 -45 50 -63 70 -26 z M 3930 -309 c 0 46 3 59 15 59 11 0 15 -12 15 -45 0 -33 5 -47 16 -52 21 -8 34 14 34 59 0 55 18 47 22 -10 3 -40 6 -47 26 -50 20 -3 22 0 22 47 0 39 4 51 15 51 18 0 21 -70 5 -101 -11 -20 -54 -26 -65 -9 -4 7 -11 8 -18 1 -7 -5 -29 -9 -49 -9 l -38 0 0 59 z M 4134 -318 c 8 60 15 67 68 66 l 38 0 0 -59 c 0 -45 -3 -59 -14 -59 -11 0 -16 14 -18 48 -3 39 -6 47 -23 47 -17 0 -20 -8 -23 -47 -2 -36 -7 -48 -19 -48 -13 0 -14 8 -9 52 z M 4281 -351 c -26 26 -27 55 -1 81 24 24 80 27 80 4 0 -8 -5 -12 -11 -9 -5 4 -21 4 -35 1 -19 -5 -24 -13 -24 -36 0 -23 5 -31 24 -36 14 -3 30 -3 37 1 7 5 10 3 7 -6 -7 -23 -54 -23 -77 0 z M 4520 -265 c 0 9 5 15 11 13 6 -2 11 -8 11 -13 0 -5 -5 -11 -11 -13 -6 -2 -11 4 -11 13 z " />
  </g>
</svg>