<?xml version="1.0" encoding="utf-8"?>
<!DOCTYPE svg PUBLIC "-//W3C//DTD SVG 20010904//EN" "http://www.w3.org/TR/2001/REC-SVG-20010904/DTD/svg10.dtd">
<svg version="1.0" width="435pt" height="75pt" viewBox="0 0 435 75" preserveAspectRatio="xMidYMid meet" xmlns="http://www.w3.org/2000/svg">
  <g transform="translate(0,75)scale(.075,.075)">
    <path id="path1" d="M 1726 -828 c -7 35 -14 261 -9 276 3 6 12 12 20 12 13 0 13 -3 3 -15 -10 -12 -11 -43 -6 -127 4 -62 10 -125 13 -140 3 -17 1 -28 -6 -28 -6 0 -13 10 -15 22 z M 690 -800 c -25 6 -25 6 -2 12 15 4 22 14 22 30 0 16 3 19 9 10 5 -9 25 15 64 80 30 51 62 102 71 113 15 19 15 19 16 -11 0 -18 -6 -34 -13 -37 -7 -2 -37 -46 -66 -96 -30 -50 -59 -95 -65 -100 -6 -4 -22 -5 -36 -1 z M 877 -803 c -4 3 -6 38 -6 77 l 2 71 7 -67 c 5 -37 11 -72 15 -78 7 -11 -8 -14 -18 -3 z M 984 -700 c -76 31 -69 166 8 158 64 -6 97 -111 48 -150 -25 -20 -26 -20 -56 -8 z m 56 80 c 0 48 -13 70 -41 70 -60 0 -68 -124 -9 -143 28 -9 50 23 50 73 z M 1182 -687 c -12 13 -22 27 -22 33 0 5 5 1 11 -8 5 -10 21 -18 35 -18 15 0 24 -5 22 -12 -7 -21 -24 -19 -46 5 z M 1257 -703 c -11 11 -8 163 3 163 10 0 12 -15 12 -108 0 -54 -3 -67 -15 -55 z M 1328 -699 c -10 5 -23 20 -29 32 -12 21 -11 21 8 5 35 -32 43 -23 43 52 0 40 4 70 10 70 11 0 14 -30 10 -100 -2 -53 -17 -73 -42 -59 z M 1427 -699 c -9 6 -22 20 -28 32 l -12 22 25 -23 c 13 -12 28 -19 31 -15 4 3 7 37 7 75 0 64 1 68 22 67 13 0 17 -3 10 -6 -8 -3 -12 -29 -12 -78 0 -76 -9 -92 -43 -74 z M 1609 -691 c 27 27 27 49 -1 61 -18 7 -19 9 -6 9 10 1 18 7 18 15 0 18 -49 58 -61 50 -13 -8 -11 -38 3 -53 11 -11 9 -11 -10 -2 -17 9 -22 19 -20 39 4 35 33 40 63 12 l 23 -22 11 21 c 7 12 21 21 34 20 l 22 0 -23 -9 c -21 -9 -22 -15 -20 -74 2 -72 3 -70 -30 -81 l -24 -7 21 21 z M 699 -640 c -4 36 -10 73 -14 82 -4 11 -3 18 4 18 16 0 23 -38 19 -105 l -3 -60 -6 65 z M 1118 -620 c 4 80 18 109 24 48 5 -57 -3 -128 -15 -128 -8 0 -11 24 -9 80 z M 1552 -688 c -14 14 -16 38 -3 38 5 0 11 -11 13 -25 6 -29 6 -29 -10 -13 z M 1050 -305 c 0 78 3 95 15 95 11 0 15 -11 15 -40 0 -39 1 -40 35 -40 24 0 35 -5 35 -15 0 -10 -11 -15 -35 -15 -31 0 -35 -3 -35 -25 0 -22 4 -25 35 -25 24 0 35 -5 35 -15 0 -11 -12 -15 -50 -15 l -50 0 0 95 z M 2200 -305 c 0 78 3 95 15 95 12 0 15 -17 15 -95 0 -78 -3 -95 -15 -95 -12 0 -15 17 -15 95 z M 2880 -305 c 0 78 3 95 15 95 12 0 15 -17 15 -95 0 -78 -3 -95 -15 -95 -12 0 -15 17 -15 95 z M 1181 -304 c -12 15 -21 30 -21 34 0 4 9 19 21 34 37 48 109 25 109 -36 0 -57 -73 -78 -109 -32 z m 79 9 c 26 32 -13 81 -48 59 -34 -22 -22 -74 18 -74 10 0 23 7 30 15 z M 1320 -269 c 0 45 3 59 14 59 11 0 16 -14 18 -48 3 -41 6 -47 25 -47 40 -1 25 -20 -17 -22 l -40 -1 0 59 z M 1500 -270 c 0 68 17 82 22 19 2 -27 9 -46 21 -53 23 -15 37 6 37 56 0 21 5 38 11 38 6 0 9 -20 7 -51 -3 -60 -24 -82 -58 -61 -12 7 -20 8 -20 2 0 -5 -4 -10 -10 -10 -6 0 -10 27 -10 60 z M 1641 -304 c -12 15 -21 30 -21 34 0 4 9 19 21 34 37 48 109 25 109 -36 0 -57 -73 -78 -109 -32 z m 79 9 c 26 32 -13 81 -48 59 -34 -22 -22 -74 18 -74 10 0 23 7 30 15 z M 1780 -269 c 0 45 3 59 14 59 11 0 16 -14 18 -48 3 -41 6 -47 25 -47 40 -1 25 -20 -17 -22 l -40 -1 0 59 z M 1880 -269 c 0 45 3 59 14 59 11 0 16 -14 18 -48 3 -39 6 -47 23 -47 17 0 20 8 23 47 2 34 7 48 18 48 10 0 14 -13 14 -50 0 -42 3 -50 19 -50 22 0 31 19 31 66 0 19 4 34 10 34 15 0 12 -96 -2 -107 -7 -6 -48 -10 -90 -10 l -78 -1 0 59 z M 2092 -323 c -24 10 -11 22 18 17 40 -8 41 19 2 38 -16 8 -27 21 -27 33 0 17 7 20 46 21 l 47 2 -5 -42 c -9 -70 -31 -89 -81 -69 z m 48 78 c 0 8 -7 15 -15 15 -16 0 -20 -12 -8 -23 11 -12 23 -8 23 8 z M 2330 -240 c 0 73 3 90 15 90 10 0 15 -10 15 -30 0 -25 4 -30 23 -30 31 0 55 -19 62 -52 10 -38 -23 -68 -75 -68 l -40 0 0 90 z m 84 -48 c 14 23 -3 52 -33 56 -19 3 -21 -1 -21 -38 0 -37 2 -41 21 -38 12 2 27 11 33 20 z M 2476 -308 c -22 30 -20 54 5 79 14 14 30 19 51 17 44 -4 45 -23 1 -23 -20 0 -38 -6 -40 -13 -3 -8 8 -12 36 -12 34 0 41 -3 41 -19 0 -48 -67 -68 -94 -29 z m 72 16 c 2 8 -7 12 -27 12 -30 0 -39 -9 -24 -24 11 -10 46 -3 51 12 z M 2612 -314 c -46 32 -15 104 45 104 28 0 63 -33 63 -60 0 -27 -35 -60 -63 -60 -12 0 -33 7 -45 16 z m 62 10 c 10 4 16 18 16 35 0 22 -6 30 -24 35 -33 8 -46 -2 -46 -35 0 -40 15 -50 54 -35 z M 2740 -240 c 0 73 3 90 15 90 10 0 15 -10 15 -30 0 -25 4 -30 23 -30 49 0 76 -70 41 -104 -9 -9 -32 -16 -55 -16 l -39 0 0 90 z m 84 -48 c 14 23 -3 52 -33 56 -19 3 -21 -1 -21 -38 0 -37 2 -41 21 -38 12 2 27 11 33 20 z M 2947 -312 c -40 44 -6 106 54 100 45 -4 47 -23 2 -23 -20 0 -38 -6 -40 -13 -3 -8 8 -12 36 -12 33 0 41 -4 41 -18 0 -24 -31 -52 -57 -52 -11 0 -27 8 -36 18 z m 63 17 c 11 13 8 15 -19 15 -30 0 -39 -9 -24 -23 11 -11 30 -8 43 8 z M 3055 -231 c -7 12 12 24 25 16 11 -7 4 -25 -10 -25 -5 0 -11 4 -15 9 z " />
  </g>
</svg>